<svg width="104" height="30" viewBox="0 0 104 30" fill="none" xmlns="http://www.w3.org/2000/svg">
<path d="M26.8339 25.7096C23.8319 28.5699 20.1129 30 15.6767 30C11.2405 30 7.52149 28.5699 4.51956 25.7096C1.50096 22.8494 0 19.2741 0 15C0 10.7259 1.50096 7.16685 4.51956 4.29036C7.52149 1.43012 11.2405 0 15.6767 0C20.1129 0 23.8319 1.43012 26.8339 4.29036C29.8358 7.16685 31.3534 10.7259 31.3534 15C31.3534 19.2741 29.8358 22.8494 26.8339 25.7096ZM23.1482 7.55688C21.1135 5.50921 18.6286 4.48537 15.6767 4.48537C12.7248 4.48537 10.2399 5.50921 8.20526 7.55688C6.17062 9.60455 5.1533 12.091 5.1533 15C5.1533 17.9252 6.17062 20.3955 8.20526 22.4431C10.2399 24.4908 12.7248 25.5146 15.6767 25.5146C18.6286 25.5146 21.1135 24.4908 23.1482 22.4431C25.1828 20.3955 26.2001 17.909 26.2001 15C26.2001 12.091 25.1828 9.60455 23.1482 7.55688Z" fill="white"/>
<path d="M37.5239 29.7074V0.69873H42.5438V25.0595H56.1359V29.7074H37.5239Z" fill="white"/>
<path d="M61.4561 0.69873H66.4759V29.7074H61.4561V0.69873Z" fill="white"/>
<path d="M99.4969 25.7096C96.495 28.5699 92.776 30 88.3398 30C83.9036 30 80.1846 28.5699 77.1826 25.7096C74.1807 22.8494 72.6631 19.2741 72.6631 15C72.6631 10.7259 74.164 7.1506 77.1826 4.29036C80.1846 1.43012 83.9036 0 88.3231 0C92.7593 0 96.4783 1.43012 99.4803 4.29036C102.482 7.1506 104 10.7259 104 15C104 19.2741 102.499 22.8494 99.4969 25.7096ZM95.8112 7.55688C93.7766 5.50921 91.2917 4.48537 88.3398 4.48537C85.3879 4.48537 82.903 5.50921 80.8683 7.55688C78.8337 9.60455 77.8164 12.091 77.8164 15C77.8164 17.9252 78.8337 20.3955 80.8683 22.4431C82.903 24.4908 85.3879 25.5146 88.3398 25.5146C91.2917 25.5146 93.7766 24.4908 95.8112 22.4431C97.8459 20.3955 98.8632 17.909 98.8632 15C98.8465 12.091 97.8292 9.60455 95.8112 7.55688Z" fill="white"/>
</svg>
