<?xml version="1.0" encoding="UTF-8" standalone="no"?>
<!DOCTYPE svg PUBLIC "-//W3C//DTD SVG 1.1//EN" "http://www.w3.org/Graphics/SVG/1.1/DTD/svg11.dtd">
<svg width="100%" height="100%" viewBox="0 0 56 56" version="1.1" xmlns="http://www.w3.org/2000/svg" xmlns:xlink="http://www.w3.org/1999/xlink" xml:space="preserve" xmlns:serif="http://www.serif.com/" style="fill-rule:evenodd;clip-rule:evenodd;stroke-linejoin:round;stroke-miterlimit:2;">
    <path d="M55.818,21.578C55.7,21.216 55.387,20.952 55.01,20.897L36.92,18.268L28.83,1.876C28.662,1.534 28.314,1.318 27.934,1.318C27.554,1.318 27.205,1.534 27.038,1.876L18.947,18.269L0.857,20.898C0.48,20.953 0.168,21.216 0.049,21.579C-0.068,21.94 0.029,22.338 0.302,22.603L13.393,35.363L10.302,53.381C10.238,53.756 10.392,54.135 10.699,54.359C11.008,54.585 11.417,54.614 11.752,54.435L27.934,45.929L44.114,54.435C44.26,54.512 44.421,54.55 44.58,54.55C44.787,54.55 44.993,54.486 45.168,54.359C45.476,54.135 45.63,53.756 45.565,53.381L42.475,35.364L55.566,22.603C55.838,22.336 55.936,21.939 55.818,21.578Z" style="fill:rgb(217,187,24);fill-rule:nonzero;"/>
</svg>
